<svg id="Layer_1" data-name="Layer 1" xmlns="http://www.w3.org/2000/svg" viewBox="0 0 1080 1080"><defs><style>.cls-1{fill:#231f20;}</style></defs><title>Artboard 1WEB-SLIM</title><path class="cls-1" d="M992.7,282c0,8.47.23,16.95.89,25.2A180.24,180.24,0,0,1,840.83,459.94c-8.24-.67-16.73-.89-25.2-.89s-16.94.22-25.2.89a356.1,356.1,0,0,0-212.3,89.65A274.32,274.32,0,0,0,548,579.69,356.18,356.18,0,0,0,458.38,792c-.66,8.25-.89,16.73-.89,25.2s.23,16.95.89,25.2A180.24,180.24,0,0,1,305.61,995.16c-8.24-.67-16.73-.89-25.2-.89s-16.94.22-25.2.89c-87.42-12.27-154.55-87.42-154.55-178a179.67,179.67,0,0,1,154.55-178c8.25.68,16.73.89,25.2.89s17-.22,25.2-.89a356.05,356.05,0,0,0,212.3-89.64A295.45,295.45,0,0,0,548,519.48a356,356,0,0,0,89.65-212.3c.68-8.25.89-16.73.89-25.2s-.22-16.95-.89-25.2a179.66,179.66,0,0,1,178-154.54c90.54,0,165.7,67.13,178,154.54C992.93,265,992.7,273.5,992.7,282Z"/><path class="cls-1" d="M654.63,497.4A262.07,262.07,0,0,1,600.22,443,268.17,268.17,0,0,1,548,309.41,268.26,268.26,0,0,1,495.84,443a262.34,262.34,0,0,1-54.41,54.41,268.28,268.28,0,0,1-133.59,52.19,268.22,268.22,0,0,1,133.59,52.18,262.36,262.36,0,0,1,54.41,54.42A268.24,268.24,0,0,1,548,789.77a268.15,268.15,0,0,1,52.19-133.58,262.1,262.1,0,0,1,54.41-54.42,268.19,268.19,0,0,1,133.58-52.18A268.24,268.24,0,0,1,654.63,497.4ZM548,579.69a294.84,294.84,0,0,0-30.11-30.1A295.45,295.45,0,0,0,548,519.48a274.85,274.85,0,0,0,30.11,30.11A274.32,274.32,0,0,0,548,579.69Z"/><path class="cls-1" d="M1055.37,1025.93a258.34,258.34,0,0,1-29,29.44c-5.58-5.8-11.6-11.6-17.85-16.95a356,356,0,0,0-212.3-89.65c-8.24-.67-16.73-.89-25.2-.89s-16.94.22-25.2.89a179.66,179.66,0,0,1-154.55-178c0-90.54,67.13-165.69,154.55-178,8.25.67,16.73.89,25.2.89s17-.22,25.2-.89C875.18,604,937.84,666.67,949,745.61c-.66,8.25-.89,16.73-.89,25.2s.23,16.95.89,25.2a356.14,356.14,0,0,0,89.65,212.3A206.16,206.16,0,0,0,1055.37,1025.93Z"/><path class="cls-1" d="M490.93,313.65c0,8.48.23,16.95.89,25.2-12.26,87.42-87.42,154.54-178,154.54a179.66,179.66,0,0,1-178-154.54c.68-8.25.89-16.73.89-25.2s-.22-16.95-.89-25.2A352.79,352.79,0,0,0,98.45,152.63a354.61,354.61,0,0,0-52.19-76.5,255.77,255.77,0,0,0-21.63-22.3A307.07,307.07,0,0,1,54.51,24.63,198.35,198.35,0,0,0,76.36,46a351.48,351.48,0,0,0,76.5,52.19,352.81,352.81,0,0,0,135.81,37.46c8.25.67,16.73.89,25.2.89s17-.22,25.2-.89C418,146.84,480.68,209.5,491.83,288.44,491.16,296.7,490.93,305.17,490.93,313.65Z"/></svg>